<?xml version="1.0" encoding="UTF-8"?>
<svg xmlns="http://www.w3.org/2000/svg" width="128" height="128" viewBox="0 0 128 128" shape-rendering="crispEdges">
  <defs>
    <linearGradient id="fur" x1="0" y1="0" x2="0" y2="1">
      <stop offset="0" stop-color="#FF8065"/>
      <stop offset="1" stop-color="#F85239"/>
    </linearGradient>
  </defs>
  <rect width="128" height="128" rx="28" fill="#0B0B0F"/>
  <path fill="#050507" d="M16 28V12h28v8h8v8h24v-8h8v-8h28v16h8v60h-8v12h-8v8h-12v8H36v-8H24v-8h-8V88H8V28z"/>
  <path fill="url(#fur)" d="M20 28V16h20v8h8v8h32v-8h8v-8h20v12h8v56h-8v12h-8v8h-8v8H36v-8h-8v-8h-8V84h-8V28z"/>
  <path fill="#CF3433" d="M24 24h12v8h8v12H32v-8h-8zm68 0h12v12h-8v8H84V32h8zM52 32h8v16h-8zm16 0h8v16h-8z"/>
  <path fill="#050507" d="M36 60h12v16H36zm44 0h12v16H80zM8 68h16v4H8zm0 12h20v4H8zm96-12h16v4h-16zm-4 12h20v4h-20z"/>
  <path fill="#CF3433" d="M56 78h16v8H56z"/>
  <path fill="#050507" d="M52 84h8v8h8v-8h8v12h-8v4h-8v-4h-8z"/>
  <path fill="#F85239" d="M18 112h12v4H18zm80 0h12v4H98z"/>
</svg>
